<svg preserveAspectRatio="none" version="1.1" xmlns="http://www.w3.org/2000/svg" xmlns:xlink="http://www.w3.org/1999/xlink" width="485.83333"
    height="333.16667" viewBox="0,0,485.83333,333.16667">
    <g transform="translate(3.18519,4.27202)">
        <g data-paper-data="{&quot;isPaintingLayer&quot;:true}" fill="none" fill-rule="nonzero" stroke-linecap="round"
            stroke-linejoin="miter" stroke-miterlimit="10" stroke-dasharray="" stroke-dashoffset="0"
            style="mix-blend-mode: normal">
            <path d="M3.98148,30.14465h153.33333" stroke="#2A9D8F" stroke-width="0.5" />
            <path
                d="M2.31481,32.47798c0,0 132.05314,0 145.33333,0c0.67816,0 17.58157,0.37782 27.88307,7.8305c5.11648,3.70155 68.99398,76.53409 89.69907,78.02496c0.30899,0.02225 99.44259,0.67571 120.74953,0.78987c1.44164,0.00772 14.17807,-0.05427 20.386,6.3133c3.08438,3.16369 3.97646,9.08572 4.21796,12.96231c0.12452,1.99885 -0.19828,104.14673 -0.25924,123.07801c-0.00379,1.17683 1.36011,11.23078 8.70086,16.84074c4.73166,3.61604 56.95609,3.1603 56.95609,3.1603"
                stroke="#2A9D8F" stroke-width="11" />
            <path
                d="M1.98148,80.47798c0,0 218.56249,0 236,0c1.4945,0 5.15365,0.41728 13.12563,-4.11222c2.71948,-1.54514 24.44946,-19.09564 27.96688,-21.76591c1.0992,-0.83446 9.95535,-10.53545 30.74331,-10.42485c1.28959,0.00686 169.83083,0.30298 169.83083,0.30298"
                stroke="rgb(249, 212, 72)" stroke-width="6" />
            <path d="M447.64814,1.47798v321.66667" stroke="rgb(249, 212, 72)" stroke-width="11.5" />
        </g>
    </g>
</svg>